<svg xmlns="http://www.w3.org/2000/svg" viewBox="0 0 128 128"><path fill="#01a996" d="M85.7 10c-.1-3.8 3.3-7.4 7.7-7.2 3.8.2 7 3.5 7 7.5 0 4.1-3.4 7.3-7.6 7.2-4-.1-7.2-3.4-7.1-7.5zM101.3 106.5c4.1 0 7.3 3.2 7.3 7.3s-3.3 7.4-7.4 7.4c-4 0-7.3-3.3-7.3-7.3 0-4.2 3.3-7.4 7.4-7.4zM7.3 76.5C3.1 76.5 0 73.2 0 69c0-4 3.3-7.2 7.4-7.1 4.1 0 7.3 3.3 7.3 7.5-.1 3.9-3.4 7.1-7.4 7.1zM88.8 29.6c0-3.5 2.8-6.3 6.3-6.3 3.4 0 6.2 2.8 6.3 6.2 0 3.4-2.8 6.3-6.3 6.4-3.5 0-6.3-2.8-6.3-6.3zM23.1 51.4c3.5 0 6.4 2.8 6.4 6.2 0 3.4-2.9 6.3-6.3 6.3-3.5 0-6.3-2.8-6.3-6.3 0-3.4 2.7-6.2 6.2-6.2zM111.4 38.1c-3.4 0-6.3-2.8-6.2-6.2 0-3.5 2.9-6.3 6.3-6.3 3.4.1 6.2 2.9 6.2 6.3.1 3.5-2.8 6.2-6.3 6.2zM83.4 112.2c-3.5 0-6.3-2.9-6.3-6.3s2.8-6.2 6.3-6.3c3.4-.1 6.3 2.9 6.3 6.3s-2.9 6.3-6.3 6.3zM23.2 42.3c0 3.5-2.8 6.3-6.3 6.2-3.4 0-6.2-2.8-6.2-6.3 0-3.4 2.8-6.3 6.2-6.3 3.4 0 6.3 2.9 6.3 6.4zM73.1 125.2c-3.5 0-6.2-2.8-6.2-6.3s2.8-6.2 6.2-6.2c3.5 0 6.3 2.8 6.3 6.3s-2.8 6.2-6.3 6.2zM54.6 108.9c0-3 2.4-5.3 5.3-5.3 3 0 5.4 2.5 5.3 5.5 0 3-2.4 5.3-5.4 5.3-2.9 0-5.3-2.4-5.2-5.5zM114.8 48.4c0 3-2.4 5.4-5.4 5.4-2.9 0-5.3-2.4-5.3-5.4 0-3 2.4-5.4 5.4-5.4 2.9 0 5.3 2.4 5.3 5.4zM37.5 35.8c0 3-2.4 5.3-5.3 5.3-3 0-5.4-2.4-5.3-5.4 0-3 2.3-5.3 5.3-5.3 3.1 0 5.4 2.3 5.3 5.4zM43.8 51.1c0 3-2.3 5.4-5.3 5.4s-5.4-2.3-5.4-5.3c0-3.1 2.3-5.4 5.4-5.4 3 0 5.3 2.3 5.3 5.3zM24.7 21.8c0-3 2.4-5.3 5.4-5.3 3 0 5.3 2.4 5.3 5.4 0 3-2.3 5.3-5.3 5.4-3.1-.1-5.5-2.5-5.4-5.5zM87.7 46.1c0-3 2.4-5.4 5.3-5.4 3 0 5.4 2.4 5.4 5.4 0 3-2.4 5.3-5.4 5.3-3 .1-5.3-2.3-5.3-5.3zM70.1 90.5c2.9 0 5.3 2.4 5.3 5.4 0 3-2.4 5.4-5.4 5.3-3 0-5.3-2.4-5.3-5.4 0-2.9 2.4-5.3 5.4-5.3zM54.3 117.9c0 3-2.3 5.3-5.3 5.3s-5.4-2.4-5.4-5.3c0-3 2.4-5.4 5.4-5.4 3 0 5.3 2.4 5.3 5.4zM122.5 58.8c-2.9 0-5.3-2.5-5.3-5.3 0-3 2.5-5.4 5.5-5.4 2.9 0 5.4 2.5 5.3 5.4 0 2.9-2.5 5.3-5.5 5.3zM55.4 98.2c0 2.5-2.1 4.6-4.6 4.6-2.6 0-4.6-2.1-4.6-4.6 0-2.6 2.1-4.6 4.7-4.6 2.5 0 4.5 2 4.5 4.6zM46.2 28.7c2.6 0 4.6 2 4.6 4.6 0 2.5-2.1 4.6-4.6 4.6-2.5 0-4.7-2.1-4.6-4.7 0-2.4 2.1-4.5 4.6-4.5zM56.4 85.1c0-2.6 2-4.6 4.5-4.6 2.6 0 4.7 2 4.7 4.6 0 2.5-2 4.6-4.6 4.6-2.6-.1-4.6-2-4.6-4.6zM39.9 111.6c-2.6 0-4.7-2-4.7-4.5s2-4.6 4.6-4.6c2.6 0 4.7 2 4.6 4.6 0 2.5-1.9 4.5-4.5 4.5zM92.7 59.5c0 2.5-2 4.5-4.5 4.5-2.6 0-4.6-2-4.6-4.6 0-2.6 2-4.6 4.6-4.6 2.6 0 4.5 2 4.5 4.7zM43.9 23.9c-2.6 0-4.6-1.9-4.6-4.5s2.1-4.7 4.6-4.7c2.5 0 4.6 2.1 4.6 4.6 0 2.6-2 4.6-4.6 4.6zM104.6 66.2c-2.6 0-4.5-2-4.5-4.6 0-2.5 2-4.5 4.6-4.6 2.6 0 4.6 2 4.5 4.7 0 2.7-2 4.6-4.6 4.5zM52.3 53.2c-2.5 0-4.5-2.1-4.5-4.6 0-2.5 2.2-4.5 4.7-4.5s4.5 2.1 4.5 4.6c0 2.5-2.1 4.5-4.7 4.5zM117.7 71.3c-2.6-.1-4.6-2.2-4.5-4.8.1-2.5 2.2-4.5 4.7-4.4 2.6.1 4.6 2.2 4.5 4.9-.1 2.5-2.2 4.4-4.7 4.3zM64.4 53.2c-2.2 0-3.9-1.7-3.9-3.9s1.8-3.9 4-3.9 3.9 1.7 3.9 3.9c-.1 2.2-1.8 3.9-4 3.9zM107.3 76.8c0-2.2 1.7-3.9 3.9-4 2.2 0 3.9 1.7 3.9 3.9s-1.9 4.2-3.9 4.1c-2.1 0-3.8-1.8-3.9-4zM59.8 20c0 2.2-1.7 3.9-3.9 3.9s-3.9-1.8-3.9-4 1.8-3.9 4.1-3.9c2.1.1 3.7 1.8 3.7 4zM59.4 74.4c0 2.2-1.7 3.9-3.8 3.9-2.3 0-4-1.7-4-3.9s1.7-3.9 3.9-3.9c2.2-.1 3.9 1.6 3.9 3.9zM45.4 91.3c-2.2 0-4-1.7-4-3.9s1.8-4 4-4c2.1 0 3.9 1.8 3.9 3.9 0 2.3-1.7 4-3.9 4zM102 71.8c0 2.3-1.7 3.9-3.9 3.9-2.1 0-3.9-1.9-3.9-4 0-2.2 1.8-3.9 4-3.9 2.1 0 3.8 1.8 3.8 4zM81.7 65.6c2.3 0 3.9 1.6 3.9 3.9 0 2.2-1.7 4-3.9 3.9-2.2 0-4-1.8-4-3.9 0-2.2 1.7-3.9 4-3.9zM38.3 96.3c0 2.2-1.8 3.9-3.9 3.9-2.2 0-3.9-1.7-3.9-3.9s1.8-4 3.9-4c2.1.1 3.9 1.9 3.9 4zM58.2 37.8c-2.2 0-3.9-1.7-3.9-3.9 0-2.1 1.8-3.9 4-4 2.1-.1 3.9 1.8 3.9 4-.1 2.2-1.8 3.9-4 3.9zM94.1 78.8c0 1.9-1.5 3.5-3.4 3.5s-3.3-1.5-3.3-3.4 1.5-3.4 3.3-3.4c1.9 0 3.4 1.5 3.4 3.3zM56.4 64.5c0 1.9-1.5 3.4-3.4 3.4-1.7 0-3.4-1.7-3.4-3.4 0-1.8 1.6-3.5 3.5-3.4 1.8 0 3.3 1.5 3.3 3.4zM32 83.1c1.9 0 3.4 1.5 3.3 3.4 0 1.8-1.6 3.4-3.4 3.4-1.9-.1-3.4-1.7-3.4-3.5 0-2 1.5-3.4 3.5-3.3zM74.2 55.4c-1.9 0-3.4-1.4-3.4-3.3s1.4-3.4 3.4-3.4c1.9 0 3.4 1.5 3.4 3.3 0 1.9-1.5 3.4-3.4 3.4zM68 33.3c1.9 0 3.3 1.5 3.3 3.4s-1.5 3.4-3.4 3.4-3.4-1.5-3.4-3.5c.1-1.8 1.6-3.3 3.5-3.3zM46.2 77.5c0 1.9-1.5 3.4-3.3 3.5-1.8 0-3.4-1.7-3.4-3.5 0-1.9 1.5-3.3 3.4-3.3s3.3 1.4 3.3 3.3zM74.4 73.3c1.9 0 3.3 1.5 3.3 3.4S76.2 80 74.3 80c-2 0-3.4-1.5-3.4-3.4.1-1.9 1.6-3.4 3.5-3.3zM107.3 83.8c0 2-1.4 3.5-3.4 3.4-1.9 0-3.3-1.5-3.4-3.4 0-1.8 1.5-3.4 3.3-3.4 1.9.1 3.5 1.6 3.5 3.4zM65.8 19.4c1.9 0 3.3 1.4 3.3 3.3s-1.5 3.4-3.3 3.4c-1.9 0-3.4-1.5-3.4-3.4s1.5-3.3 3.4-3.3zM76.2 27c0 1.6-1.3 2.9-3 2.8-1.6 0-2.8-1.3-2.8-2.9 0-1.6 1.3-2.9 2.9-2.9 1.7.1 3 1.4 2.9 3zM28.9 77.6c0-1.6 1.3-2.8 2.9-2.8 1.6 0 3 1.4 2.9 3-.1 1.6-1.4 2.9-2.9 2.9-1.7-.1-3-1.4-2.9-3.1zM99.4 88.3c0 1.7-1.3 3-2.9 3-1.6 0-3-1.3-3-2.9 0-1.6 1.3-2.9 3-2.9 1.6 0 2.8 1.2 2.9 2.8zM45.6 68.9c0 1.6-1.3 2.9-2.9 2.9-1.6 0-2.9-1.4-2.9-3s1.4-2.8 2.9-2.8c1.6 0 2.9 1.2 2.9 2.9zM75.5 43.8c-1.7 0-2.9-1.3-2.9-2.9 0-1.6 1.3-2.8 2.9-2.8 1.7 0 2.9 1.2 2.9 2.9.1 1.6-1.1 2.8-2.9 2.8zM83.3 80.5c1.6 0 2.8 1.2 2.8 2.9s-1.3 3-3 3c-1.6 0-2.8-1.3-2.8-2.9.1-1.8 1.4-3 3-3zM35.7 70.5c0 1.4-1.1 2.5-2.5 2.5-1.3 0-2.6-1.2-2.5-2.6 0-1.4 1.2-2.5 2.6-2.5 1.4.1 2.5 1.2 2.4 2.6zM91.9 90.7c0 1.4-1.1 2.5-2.5 2.5-1.3 0-2.5-1.2-2.5-2.5 0-1.4 1.2-2.5 2.6-2.5 1.4 0 2.4 1.1 2.4 2.5zM78.8 29.5c1.5 0 2.6 1 2.6 2.5 0 1.4-1.1 2.5-2.5 2.5s-2.5-1-2.5-2.4c-.1-1.6.9-2.6 2.4-2.6z"/></svg>